<svg xmlns="http://www.w3.org/2000/svg" viewBox="0 0 56.3 97.77"><defs><style>.cls-1{fill:#7c3367;}</style></defs><g id="Layer_2" data-name="Layer 2"><g id="Layer_1-2" data-name="Layer 1"><path class="cls-1" d="M8.89,28.66a1.85,1.85,0,0,0,.57,0c-.11-.19-.33-.24-.48-.36s-.06-.11,0-.17.12-.06.2,0a.86.86,0,0,0,.5.08s0-.08,0-.1a8.48,8.48,0,0,1,0-3.33c.21-1.23.37-2.47.62-3.69a26.79,26.79,0,0,1,1-3.25c.06-.17.11-.34.16-.5s.1-.28.18-.4c.3-.93.65-1.83,1-2.74s.61-1.58.92-2.37l1.17-2.94A1.27,1.27,0,0,1,15,8.42c-.17.63-.1,1.19-.22,1.74a14.62,14.62,0,0,0-.17,2.39c-.07,1.59-.06,3.18,0,4.77a32.13,32.13,0,0,0,.53,4.58c.17,1,.41,2,.63,3a4,4,0,0,0,.17.49,28.21,28.21,0,0,0,1.52,4.18c.43,1,.9,1.91,1.42,2.83a31.07,31.07,0,0,0,2,3,33.23,33.23,0,0,0,2.7,3.23c.7.73,1.39,1.46,2.16,2.12s1.26,1.18,1.93,1.72,1.54,1.2,2.33,1.77,1.51,1.07,2.28,1.58c.55.36,1.09.72,1.62,1.11a19.48,19.48,0,0,1,3.07,2.88,17.31,17.31,0,0,1,2.57,4,18.51,18.51,0,0,1,.88,2.28A24,24,0,0,1,41,59.2a18.49,18.49,0,0,1,.21,3.4,26.21,26.21,0,0,1-.5,4.05A27.73,27.73,0,0,1,39,72.14a31.73,31.73,0,0,1-2.23,4.34,35.63,35.63,0,0,1-2.42,3.45,38.82,38.82,0,0,1-4.87,5.14A33.47,33.47,0,0,1,26,87.79c-.26.18-.5.39-.76.58a1.29,1.29,0,0,1-.47.23.76.76,0,0,1,.1-.48A21.91,21.91,0,0,0,26,85c.2-.78.34-1.56.5-2.34a16.09,16.09,0,0,0,.12-5.36,10.16,10.16,0,0,0-.94-3.17,2,2,0,0,1-.1-.26,1.88,1.88,0,0,0-.16-.23,6.25,6.25,0,0,0-3.05-2.79,5.17,5.17,0,0,1,1-.3c.13-.07.28-.09.4-.16,1.36-.46,2.71-.94,4-1.52a31,31,0,0,0,2.94-1.47,2.56,2.56,0,0,0,.66-.47c0-.09.13-.07.2-.11h0c0-.09.14-.06.19-.12h0l.1-.1h0c.05-.06.15,0,.19-.1h0c.33-.5.91-.75,1.3-1.19a7.1,7.1,0,0,0,.87-1c.17-.21.3-.46.47-.67s.11-.28.21-.4a1.93,1.93,0,0,0,.19-.47,2.41,2.41,0,0,0,.14-.59.7.7,0,0,1-.09.35,2.9,2.9,0,0,1-.21.65,3.23,3.23,0,0,0-.22.41c-.18.22-.31.48-.49.7a6.64,6.64,0,0,1-.88,1,4.61,4.61,0,0,1-1.48,1h0s-.07.07-.13.07a.09.09,0,0,0-.06,0c-.06.12-.19.12-.29.18h0c-.09,0-.14.14-.23.18a16.18,16.18,0,0,0-1.57.76,1.4,1.4,0,0,1-.39.14,1.39,1.39,0,0,1-.31.18c-1.38.55-2.77,1-4.19,1.47-.69.21-1.39.36-2.08.56a2.84,2.84,0,0,0-.49.17,19.28,19.28,0,0,0-2,.44,2.18,2.18,0,0,1-.52.09c-.74.09-1.47.31-2.22.36-.29.07-.59.1-.88.17-.94.12-1.88.27-2.82.35a23.81,23.81,0,0,1-2.53.25A5.64,5.64,0,0,1,7.07,70a5.66,5.66,0,0,1-1.6-3,6.19,6.19,0,0,1,.16-2.53c.24-.93.56-1.83.86-2.74a1.57,1.57,0,0,0-.36-1.52,8.19,8.19,0,0,1-1.08-1.8,1.74,1.74,0,0,1,.42-2.18,1.82,1.82,0,0,1,1.2-.53,9.87,9.87,0,0,0,2.17-.34L6.3,55.07A2.28,2.28,0,0,1,4.2,52,8.78,8.78,0,0,1,5,50.5a3.27,3.27,0,0,0,.44-1.59,1.18,1.18,0,0,0-.73-1.18c-.79-.44-1.65-.75-2.42-1.25a6,6,0,0,1-2-2.06,2,2,0,0,1-.09-1.75,6.51,6.51,0,0,1,1.31-1.94c.7-.77,1.49-1.45,2.2-2.21s1.21-1.4,1.8-2.12,1.1-1.24,1.64-1.87a18,18,0,0,0,2.31-3.05,3.8,3.8,0,0,0,.62-2.1c0-.38,0-.4-.43-.4a2.4,2.4,0,0,1-1.21-.22c-.16-.15-.16-.15,0-.21l.08,0C8.61,28.67,8.77,28.57,8.89,28.66Z"></path><path class="cls-1" d="M55.72,56.44l.45,3.29a2.64,2.64,0,0,1,0,.28c.06,1.5.14,3,.09,4.48s-.22,3.16-.43,4.74c-.18,1.4-.44,2.78-.72,4.16-.18.87-.45,1.73-.68,2.59a41.54,41.54,0,0,1-1.56,4.73c-.29.73-.57,1.46-.88,2.18a1.6,1.6,0,0,1-.34.51A11.6,11.6,0,0,1,51.83,82,9.87,9.87,0,0,0,52,80.65c.07-.78.15-1.56.19-2.35.06-1.13.09-2.27.06-3.41s-.11-2.15-.23-3.22a30.67,30.67,0,0,0-.65-3.93,28.75,28.75,0,0,0-1.18-3.94c-.29-.71-.52-1.44-.84-2.14A36.18,36.18,0,0,0,46.21,56,44.13,44.13,0,0,0,43,51.8q-1.74-2-3.67-3.84c-.87-.83-1.75-1.64-2.66-2.43q-2.05-1.76-4.2-3.42c-1.19-.92-2.39-1.81-3.61-2.69a29,29,0,0,1-4-3.42,27.71,27.71,0,0,1-3.25-4.08l-.06-.08a1.15,1.15,0,0,1-.2-.29,34.67,34.67,0,0,1-2-3.76,34,34,0,0,1-1.3-3.4c-.44-1.39-.78-2.8-1.09-4.23s-.41-2.71-.58-4.08a37,37,0,0,1-.21-5.57,13.15,13.15,0,0,1,.3-3.17c.25.18.27.5.41.75s.27.54.41.81l.18.3a47.8,47.8,0,0,0,2.66,4.66C20.81,15,21.56,16,22.35,17c.66.85,1.39,1.64,2.12,2.42a33.15,33.15,0,0,0,3.41,3.08c1.11.91,2.3,1.73,3.46,2.58s2.2,1.58,3.3,2.38a74.46,74.46,0,0,1,6.16,5.05c1.45,1.33,2.83,2.72,4.17,4.16,1.17,1.25,2.28,2.55,3.38,3.87a34.08,34.08,0,0,1,2.39,3.23,32.24,32.24,0,0,1,2.09,3.72,33.07,33.07,0,0,1,1.39,3.31A22.06,22.06,0,0,1,55,53.25c.06.16.12.33.17.49.14.67.33,1.33.41,2A5.35,5.35,0,0,0,55.72,56.44Z"></path><path class="cls-1" d="M43.28,54.72A15.55,15.55,0,0,0,44,56.11c.4.83.87,1.63,1.27,2.47.49,1,1,2,1.4,3.05A35.63,35.63,0,0,1,48,65c.27.85.6,1.68.84,2.54s.53,1.91.76,2.88.35,1.82.5,2.73a28,28,0,0,1,.31,6,19.51,19.51,0,0,1-.67,4.17,17.36,17.36,0,0,1-1.65,4,20.14,20.14,0,0,1-3.77,4.61A24,24,0,0,1,41.62,94a1.44,1.44,0,0,1-.42.23c-.08.05-.13.13-.22.17a23.28,23.28,0,0,1-2.36,1.27,1.63,1.63,0,0,1-.31.11A1.23,1.23,0,0,1,38,96a27.37,27.37,0,0,1-3.1,1c-.76.17-1.52.32-2.29.47a25.88,25.88,0,0,1-5.27.32c-1,0-1.95-.08-2.92-.19a28.42,28.42,0,0,1-2.93-.49c-.81-.19-1.64-.31-2.43-.56a36,36,0,0,1-3.64-1.2,18.22,18.22,0,0,1-1.72-.7s0-.05,0-.07,0,0,0,0c1.14-.23,2.29-.41,3.42-.69s2.5-.68,3.72-1.08c.52-.16,1-.35,1.53-.54a1.81,1.81,0,0,0,.4-.18A34.09,34.09,0,0,0,26,90.59c.7-.35,1.35-.79,2.06-1.1a1.28,1.28,0,0,0,.22-.17,28.59,28.59,0,0,0,3.66-2.61,31,31,0,0,0,3.23-3.15,31.74,31.74,0,0,0,2.45-3.19,15.93,15.93,0,0,0,1.28-2.14c0-.08.12-.14.16-.22.28-.63.61-1.23.9-1.85s.66-1.52,1-2.3A39.82,39.82,0,0,0,42.08,70c.24-.91.4-1.84.58-2.77s.3-1.76.39-2.65c.11-1.12.24-2.23.28-3.36,0-1.32,0-2.63,0-3.94,0-.78-.2-1.53-.23-2.3a3.88,3.88,0,0,0,0-.48C43.2,54.47,43.22,54.61,43.28,54.72Z"></path><path class="cls-1" d="M31,5.9A34.44,34.44,0,0,1,37,10.74a.41.41,0,0,1,.2.19h0a.27.27,0,0,1,.1.11h0a.87.87,0,0,1,.11.09h0a.44.44,0,0,1,.08.11h0a.32.32,0,0,1,.1.1h0a11.43,11.43,0,0,1,1.22,1.29c.38.51.8,1,1.14,1.51a.76.76,0,0,1,.08.11,1,1,0,0,1,.08.11,13.46,13.46,0,0,1,.82,1.25c0,.07.1.13.14.21a2.33,2.33,0,0,1,.39.59c.12.23.27.45.41.71-.14-.3-.33-.54-.44-.82a4,4,0,0,0-.3-.42,3.53,3.53,0,0,1-.21-.32,14.16,14.16,0,0,0-.87-1.31c-.43-.56-.8-1.16-1.25-1.71A8.19,8.19,0,0,1,38,11.4h0a.21.21,0,0,1-.11-.1h0a.21.21,0,0,1-.1-.11h0a.94.94,0,0,1-.2-.29h0a.24.24,0,0,1-.1-.1h0a.47.47,0,0,1-.1-.1h0a1.9,1.9,0,0,0-.19-.21A9.44,9.44,0,0,0,35.77,9a27.32,27.32,0,0,0-2.94-2.54c-1-.76-2.08-1.47-3.17-2.14C28.3,3.43,26.88,2.71,25.45,2c-.65-.31-1.3-.62-2-.87A2,2,0,0,1,23,.83a.94.94,0,0,1,.49-.24A12.29,12.29,0,0,1,27.75,0a14.65,14.65,0,0,1,2.72.33,5.72,5.72,0,0,1,.59.17,14.13,14.13,0,0,1,3.12,1.22,20.88,20.88,0,0,1,4,2.7A30.6,30.6,0,0,1,40.84,7a25,25,0,0,1,2.44,3.08,23.66,23.66,0,0,1,1.42,2.5,23.08,23.08,0,0,1,1.71,4.78c.21.88.35,1.76.49,2.64a22.5,22.5,0,0,1,.22,4.18,25.15,25.15,0,0,1-.48,4,9.16,9.16,0,0,1-.3,1.09.15.15,0,0,1-.19,0,20.07,20.07,0,0,0-2.87-2.15,28.12,28.12,0,0,0-3.52-1.85,41.72,41.72,0,0,0-4-1.48,21.85,21.85,0,0,1-2.31-.93,23.32,23.32,0,0,1-4.67-3,22.48,22.48,0,0,1-2.49-2.39,21.43,21.43,0,0,1-2.72-3.76,18,18,0,0,1-1.76-4.44,15.18,15.18,0,0,1-.34-5.2,9.46,9.46,0,0,1,.52-2.39A16.23,16.23,0,0,1,24,2.46c.78.31,1.55.66,2.33,1a36,36,0,0,1,3.5,1.78c.29.17.59.32.88.48C30.82,5.79,30.87,5.87,31,5.9Z"></path></g></g></svg>